<?xml version="1.0" encoding="UTF-8" standalone="no"?>
<svg
   xmlns:dc="http://purl.org/dc/elements/1.1/"
   xmlns:cc="http://creativecommons.org/ns#"
   xmlns:rdf="http://www.w3.org/1999/02/22-rdf-syntax-ns#"
   xmlns:svg="http://www.w3.org/2000/svg"
   xmlns="http://www.w3.org/2000/svg"
   xmlns:sodipodi="http://sodipodi.sourceforge.net/DTD/sodipodi-0.dtd"
   xmlns:inkscape="http://www.inkscape.org/namespaces/inkscape"
   id="svg4499"
   version="1.1"
   viewBox="0 0 79.374996 79.375002"
   height="300"
   width="300"
   sodipodi:docname="linkedin.svg"
   inkscape:version="0.92.1 r15371">
  <sodipodi:namedview
     pagecolor="#ffffff"
     bordercolor="#666666"
     borderopacity="1"
     objecttolerance="10"
     gridtolerance="10"
     guidetolerance="10"
     inkscape:pageopacity="0"
     inkscape:pageshadow="2"
     inkscape:window-width="1920"
     inkscape:window-height="1001"
     id="namedview9"
     showgrid="false"
     inkscape:zoom="0.78666667"
     inkscape:cx="-73.728813"
     inkscape:cy="150"
     inkscape:window-x="-9"
     inkscape:window-y="-9"
     inkscape:window-maximized="1"
     inkscape:current-layer="svg4499" />
  <defs
     id="defs4493" />
  <metadata
     id="metadata4496">
    <rdf:RDF>
      <cc:Work
         rdf:about="">
        <dc:format>image/svg+xml</dc:format>
        <dc:type
           rdf:resource="http://purl.org/dc/dcmitype/StillImage" />
        <dc:title />
      </cc:Work>
    </rdf:RDF>
  </metadata>
  <g
     transform="translate(0,-217.62498)"
     id="layer1"
     style="fill:#ffffff">
    <circle
       r="37.800175"
       cy="257.44479"
       cx="39.555206"
       id="path5065"
       style="fill:none;fill-opacity:0;stroke:#ffffff;stroke-width:3.51006365;stroke-linecap:round;stroke-linejoin:round;stroke-miterlimit:4;stroke-dasharray:none;stroke-dashoffset:0;stroke-opacity:1;paint-order:fill markers stroke" />
    <g
       id="g4493"
       transform="matrix(0.14989029,0,0,0.14989029,0.27757998,220.8846)"
       style="fill:#ffffff">
      <path
         d="M 189.573,376.368 H 134.908 V 199.761 h 54.665 z M 161.98,176.633 c -17.853,0 -32.326,-14.591 -32.326,-32.587 0,-17.998 14.475,-32.588 32.326,-32.588 17.851,0 32.324,14.59 32.324,32.588 0.001,17.997 -14.472,32.587 -32.324,32.587 z m 232.45,199.735 h -54.4 v -92.704 c 0,-25.426 -9.658,-39.619 -29.763,-39.619 -21.881,0 -33.312,14.782 -33.312,39.619 v 92.704 h -52.43 V 199.761 h 52.43 v 23.786 c 0,0 15.771,-29.173 53.219,-29.173 37.449,0 64.257,22.866 64.257,70.169 z"
         id="path7"
         style="fill:#ffffff;fill-opacity:1;stroke:none;stroke-opacity:0" />
    </g>
  </g>
</svg>
