<?xml version="1.0" encoding="UTF-8" standalone="no"?>
<svg
   xmlns:dc="http://purl.org/dc/elements/1.1/"
   xmlns:cc="http://creativecommons.org/ns#"
   xmlns:rdf="http://www.w3.org/1999/02/22-rdf-syntax-ns#"
   xmlns:svg="http://www.w3.org/2000/svg"
   xmlns="http://www.w3.org/2000/svg"
   xmlns:sodipodi="http://sodipodi.sourceforge.net/DTD/sodipodi-0.dtd"
   xmlns:inkscape="http://www.inkscape.org/namespaces/inkscape"
   viewBox="0 0 221.09 144.23"
   version="1.1"
   id="svg12"
   sodipodi:docname="Monogram_white.svg"
   inkscape:version="0.92.1 r15371">
  <metadata
     id="metadata16">
    <rdf:RDF>
      <cc:Work
         rdf:about="">
        <dc:format>image/svg+xml</dc:format>
        <dc:type
           rdf:resource="http://purl.org/dc/dcmitype/StillImage" />
        <dc:title>Monogram</dc:title>
      </cc:Work>
    </rdf:RDF>
  </metadata>
  <sodipodi:namedview
     pagecolor="#ffffff"
     bordercolor="#666666"
     borderopacity="1"
     objecttolerance="10"
     gridtolerance="10"
     guidetolerance="10"
     inkscape:pageopacity="0"
     inkscape:pageshadow="2"
     inkscape:window-width="1920"
     inkscape:window-height="1001"
     id="namedview14"
     showgrid="false"
     inkscape:zoom="1.6282962"
     inkscape:cx="110.545"
     inkscape:cy="72.114998"
     inkscape:window-x="-9"
     inkscape:window-y="-9"
     inkscape:window-maximized="1"
     inkscape:current-layer="svg12" />
  <defs
     id="defs4">
    <style
       id="style2">.cls-1{fill:#f58220;}</style>
  </defs>
  <title
     id="title6">Monogram</title>
  <g
     id="Layer_2"
     data-name="Layer 2">
    <g
       id="Headers">
      <path
         class="cls-1"
         d="M0,144.23V0H160c11.76,0,21.14,1.64,27.88,4.87a37.06,37.06,0,0,1,15.8,13.7,37.31,37.31,0,0,1,5.47,20.12c0,12.28-5.3,21.73-15.79,28.2a42.93,42.93,0,0,1,18,11.33,35.32,35.32,0,0,1,9.7,24.85,36.62,36.62,0,0,1-5.9,20.42c-3.88,5.93-9.62,10.82-17.06,14.51s-16.64,5.53-27.57,5.53ZM5.8,6.14V138.08L66.25,138q3.11-.21,5.06-.53a67.32,67.32,0,0,0,13.79-4,65.28,65.28,0,0,0,42.32-61.21,66.86,66.86,0,0,0-9.32-34.45A61.45,61.45,0,0,0,93.07,14C84.29,9.44,72.66,6.78,58.42,6ZM89.25,6a60.78,60.78,0,0,1,6.47,2.86,67.16,67.16,0,0,1,27.37,26.06,72.58,72.58,0,0,1,10.13,37.4,70.86,70.86,0,0,1-21.52,51,70.1,70.1,0,0,1-22.06,14.64l80.93-.17c10,0,18.43-1.66,25-4.92h0c6.5-3.23,11.48-7.44,14.79-12.5a30.92,30.92,0,0,0,4.95-17.24,29.31,29.31,0,0,0-8.14-20.9c-5.49-5.88-13-9.77-22.43-11.55l-9.48-1.8,8.91-3.72c12.93-5.4,19.22-14,19.22-26.41a31.61,31.61,0,0,0-4.59-17,31.37,31.37,0,0,0-13.39-11.54c-6-2.85-14.49-4.3-25.37-4.3ZM48.15,126.57H19.85V17.66H47.55c9.78,0,16.72.37,21.22,1.13h0a56.58,56.58,0,0,1,14.39,4.7,51.28,51.28,0,0,1,13.51,9.15c10.61,9.91,16,22.88,16,38.52,0,15.87-5.22,29.21-15.52,39.65A50.17,50.17,0,0,1,86.45,119,57.33,57.33,0,0,1,72,124.45C66.2,125.87,58.41,126.57,48.15,126.57Zm-22.51-5.8H48.15c9.65,0,17.19-.66,22.43-2a51.64,51.64,0,0,0,13-4.87A44.3,44.3,0,0,0,93,106.73c9.18-9.3,13.84-21.27,13.84-35.56s-4.63-25.4-14.16-34.3a45.53,45.53,0,0,0-12-8.13,50.83,50.83,0,0,0-12.9-4.23c-4.12-.7-10.94-1.05-20.26-1.05H25.64ZM163.08,126H140.75V76.51h21.33c10.24,0,17.61.9,22.52,2.75h0a24.84,24.84,0,0,1,11.84,8.83,22.46,22.46,0,0,1,4.23,13.21,23.38,23.38,0,0,1-4,13,23.82,23.82,0,0,1-10.53,8.9C181.92,125.08,174.36,126,163.08,126Zm-16.53-5.8h16.53c12.86,0,18.4-1.24,20.78-2.27a17.87,17.87,0,0,0,8-6.77,17.45,17.45,0,0,0,3-9.85,16.55,16.55,0,0,0-3.17-9.86,18.91,18.91,0,0,0-9.16-6.75c-4.19-1.58-11.07-2.38-20.47-2.38H146.55Zm10.22-55.43h-16V17.55h19.86c23.26,0,28.14,12.35,28.14,22.72A22.9,22.9,0,0,1,181.14,58C176.1,62.54,168.13,64.76,156.77,64.76ZM146.55,59h10.22c9.73,0,16.62-1.77,20.49-5.27A17.1,17.1,0,0,0,183,40.27c0-7.26-2.32-16.92-22.34-16.92H146.55Z"
         id="path8"
         style="fill:#ffffff;fill-opacity:0.9910714;stroke:none" />
    </g>
  </g>
</svg>
