<?xml version="1.0" encoding="UTF-8" standalone="no"?>
<svg
   xmlns:dc="http://purl.org/dc/elements/1.1/"
   xmlns:cc="http://creativecommons.org/ns#"
   xmlns:rdf="http://www.w3.org/1999/02/22-rdf-syntax-ns#"
   xmlns:svg="http://www.w3.org/2000/svg"
   xmlns="http://www.w3.org/2000/svg"
   xmlns:sodipodi="http://sodipodi.sourceforge.net/DTD/sodipodi-0.dtd"
   xmlns:inkscape="http://www.inkscape.org/namespaces/inkscape"
   id="svg4499"
   version="1.1"
   viewBox="0 0 79.374996 79.375002"
   height="300"
   width="300"
   sodipodi:docname="Twitter.svg"
   inkscape:version="0.92.1 r15371">
  <sodipodi:namedview
     pagecolor="#ffffff"
     bordercolor="#666666"
     borderopacity="1"
     objecttolerance="10"
     gridtolerance="10"
     guidetolerance="10"
     inkscape:pageopacity="0"
     inkscape:pageshadow="2"
     inkscape:window-width="1920"
     inkscape:window-height="1001"
     id="namedview8"
     showgrid="false"
     inkscape:zoom="0.78666667"
     inkscape:cx="150"
     inkscape:cy="150"
     inkscape:window-x="-9"
     inkscape:window-y="-9"
     inkscape:window-maximized="1"
     inkscape:current-layer="layer1" />
  <defs
     id="defs4493" />
  <metadata
     id="metadata4496">
    <rdf:RDF>
      <cc:Work
         rdf:about="">
        <dc:format>image/svg+xml</dc:format>
        <dc:type
           rdf:resource="http://purl.org/dc/dcmitype/StillImage" />
        <dc:title />
      </cc:Work>
    </rdf:RDF>
  </metadata>
  <g
     transform="translate(0,-217.62498)"
     id="layer1">
    <circle
       r="37.800175"
       cy="257.44479"
       cx="39.555206"
       id="path5065"
       style="fill:none;fill-opacity:1;stroke:#ffffff;stroke-width:3.51006365;stroke-linecap:round;stroke-linejoin:round;stroke-miterlimit:4;stroke-dasharray:none;stroke-dashoffset:0;stroke-opacity:1;paint-order:fill markers stroke" />
    <path
       style="fill:#ffffff;fill-opacity:1;stroke-width:0.10508846"
       id="path4"
       d="m 59.398955,245.13389 c -1.45978,0.64776 -3.0277,1.08566 -4.67623,1.2825 1.68247,-1.00749 2.97138,-2.60399 3.57995,-4.5041 a 16.265593,16.265593 0 0 1 -5.1713,1.97577 c -1.48438,-1.58221 -3.60107,-2.57004 -5.94286,-2.57004 -4.494947,0 -8.140357,3.64394 -8.140357,8.14152 0,0.63725 0.0718,1.25896 0.20975,1.85586 -6.76654,-0.34007 -12.76551,-3.58131 -16.78094,-8.50639 -0.70115,1.20285 -1.10249,2.60136 -1.10249,4.09352 0,2.82425 1.43751,5.3161 3.62177,6.77578 a 8.1046326,8.1046326 0 0 1 -3.68829,-1.01788 v 0.10288 c 0,3.94502 2.80597,7.2345 6.53073,7.98262 -0.68423,0.18748 -1.4023,0.28542 -2.14517,0.28542 -0.52524,0 -1.03481,-0.0497 -1.53261,-0.14334 1.03606,3.23347 4.04285,5.58714 7.60451,5.65366 -2.78642,2.18426 -6.29742,3.48631 -10.11077,3.48631 -0.6568,0 -1.30593,-0.0392 -1.94319,-0.11602 3.60359,2.31068 7.88227,3.6596 12.4802,3.6596 14.974687,0 23.164437,-12.4059 23.164437,-23.16444 0,-0.3532 -0.008,-0.70378 -0.0248,-1.05309 a 16.588739,16.588739 0 0 0 4.06766,-4.22014 z" />
  </g>
</svg>
